<svg width="30" height="30" viewBox="0 0 30 30" fill="none" xmlns="http://www.w3.org/2000/svg">
<circle cx="15" cy="15" r="15" fill="#FFD54F"/>
<path d="M15.4 3C9.10435 3 4 8.18427 4 14.5785C4 20.004 7.6784 24.5437 12.6374 25.8C12.5842 25.6437 12.55 25.4623 12.55 25.2375V23.2585C12.0873 23.2585 11.3121 23.2585 11.1174 23.2585C10.3374 23.2585 9.64395 22.9179 9.30765 22.285C8.9343 21.5816 8.8697 20.5057 7.9444 19.8477C7.66985 19.6287 7.87885 19.3788 8.1952 19.4125C8.77945 19.5804 9.26395 19.9876 9.71995 20.5916C10.174 21.1966 10.3878 21.3336 11.2361 21.3336C11.6475 21.3336 12.2631 21.3095 12.8426 21.2168C13.1542 20.4131 13.6928 19.673 14.3512 19.3238C10.555 18.9272 8.74335 17.009 8.74335 14.4048C8.74335 13.2836 9.2136 12.1991 10.0126 11.2854C9.75035 10.3784 9.4207 8.52873 10.1133 7.82438C11.8214 7.82438 12.854 8.94942 13.1019 9.25336C13.9531 8.95714 14.8879 8.78925 15.8702 8.78925C16.8544 8.78925 17.793 8.95714 18.6461 9.25529C18.8912 8.95328 19.9248 7.82438 21.6367 7.82438C22.3321 8.5297 21.9987 10.3871 21.7336 11.2921C22.5278 12.2039 22.9953 13.2856 22.9953 14.4048C22.9953 17.0071 21.1864 18.9243 17.3959 19.3228C18.439 19.8757 19.2 21.4291 19.2 22.5995V25.2375C19.2 25.3378 19.1781 25.4102 19.1667 25.4961C23.6089 23.9146 26.8 19.6306 26.8 14.5785C26.8 8.18427 21.6956 3 15.4 3Z" fill="black"/>
</svg>
