<svg width="30" height="30" viewBox="0 0 30 30" fill="none" xmlns="http://www.w3.org/2000/svg">
<circle cx="15" cy="15" r="15" fill="#FFD54F"/>
<path d="M8.3999 10.8001H11.3999V21.0001H8.3999V10.8001ZM9.8909 9.6001H9.8741C8.9789 9.6001 8.3999 8.9329 8.3999 8.0995C8.3999 7.2481 8.9969 6.6001 9.9083 6.6001C10.8209 6.6001 11.3831 7.2481 11.3999 8.0995C11.3999 8.9323 10.8209 9.6001 9.8909 9.6001ZM22.7999 21.0001H19.7999V15.5407C19.7999 14.2219 19.0649 13.3219 17.8847 13.3219C16.9841 13.3219 16.4969 13.9291 16.2605 14.5159C16.1741 14.7259 16.1999 15.3067 16.1999 15.6001V21.0001H13.1999V10.8001H16.1999V12.3697C16.6325 11.7001 17.3099 10.8001 19.0427 10.8001C21.1895 10.8001 22.7993 12.1501 22.7993 15.1645L22.7999 21.0001Z" fill="black"/>
</svg>
